<?xml version="1.0" encoding="UTF-8"?>
<svg width="18px" height="225px" viewBox="0 0 18 225" version="1.1" xmlns="http://www.w3.org/2000/svg" xmlns:xlink="http://www.w3.org/1999/xlink">
    <!-- Generator: Sketch 52.5 (67469) - http://www.bohemiancoding.com/sketch -->
    <title>Pass (Edge+6px Shadow)</title>
    <desc>Created with Sketch.</desc>
    <defs>
        <path d="M15,202.835554 L15,217 L-5.32907052e-15,217 L-5.32907052e-15,-4.54747351e-13 L15,-4.54747351e-13 L15,15.6113167 C14.3125271,15.4821827 13.6030498,15.4146112 12.8776361,15.4146112 C6.62562438,15.4146112 1.55736752,20.4337795 1.55736752,26.6252375 C1.55736752,32.8166954 6.62562438,37.8358638 12.8776361,37.8358638 C13.6030498,37.8358638 14.3125271,37.7682922 15,37.6391582 L15,49.2431956 C14.3125271,49.1140616 13.6030498,49.04649 12.8776361,49.04649 C6.62562438,49.04649 1.55736752,54.0656584 1.55736752,60.2571163 C1.55736752,66.4485743 6.62562438,71.4677426 12.8776361,71.4677426 C13.6030498,71.4677426 14.3125271,71.4001711 15,71.2710371 L15,82.8750745 C14.3125271,82.7459405 13.6030498,82.6783689 12.8776361,82.6783689 C6.62562438,82.6783689 1.55736752,87.6975373 1.55736752,93.8889952 C1.55736752,100.080453 6.62562438,105.099622 12.8776361,105.099622 C13.6030498,105.099622 14.3125271,105.03205 15,104.902916 L15,116.506953 C14.3125271,116.377819 13.6030498,116.310248 12.8776361,116.310248 C6.62562438,116.310248 1.55736752,121.329416 1.55736752,127.520874 C1.55736752,133.712332 6.62562438,138.7315 12.8776361,138.7315 C13.6030498,138.7315 14.3125271,138.663929 15,138.534795 L15,149.683076 C14.099078,149.423365 13.1501105,149.284619 12.1701193,149.284619 C6.30885833,149.284619 1.55736752,154.247763 1.55736752,160.370111 C1.55736752,166.492459 6.30885833,171.455602 12.1701193,171.455602 C13.1501105,171.455602 14.099078,171.316857 15,171.057145 L15,181.461485 C14.099078,181.201774 13.1501105,181.063028 12.1701193,181.063028 C6.30885833,181.063028 1.55736752,186.026172 1.55736752,192.14852 C1.55736752,198.270868 6.30885833,203.234011 12.1701193,203.234011 C13.1501105,203.234011 14.099078,203.095266 15,202.835554 Z" id="path-1"></path>
        <filter x="-50.0%" y="-2.5%" width="186.7%" height="106.0%" filterUnits="objectBoundingBox" id="filter-2">
            <feOffset dx="-1" dy="1" in="SourceAlpha" result="shadowOffsetOuter1"></feOffset>
            <feGaussianBlur stdDeviation="2" in="shadowOffsetOuter1" result="shadowBlurOuter1"></feGaussianBlur>
            <feColorMatrix values="0 0 0 0 0.458882669   0 0 0 0 0.540034641   0 0 0 0 0.673788265  0 0 0 0.119650136 0" type="matrix" in="shadowBlurOuter1"></feColorMatrix>
        </filter>
    </defs>
    <g id="Pass" stroke="none" stroke-width="1" fill="none" fill-rule="evenodd">
        <g id="Pass-(Edge+6px-Shadow)" transform="translate(0.000000, 3.000000)">
            <g id="Pass-(Edge)-(Shadow)-Copy" fill="black" fill-opacity="1">
                <use filter="url(#filter-2)" xlink:href="#path-1"></use>
            </g>
            <path d="M15,202.835554 L15,217 L0,217 L0,-4.54747351e-13 L15,-4.54747351e-13 L15,15.6113167 C14.3125271,15.4821827 13.6030498,15.4146112 12.8776361,15.4146112 C6.62562438,15.4146112 1.55736752,20.4337795 1.55736752,26.6252375 C1.55736752,32.8166954 6.62562438,37.8358638 12.8776361,37.8358638 C13.6030498,37.8358638 14.3125271,37.7682922 15,37.6391582 L15,49.2431956 C14.3125271,49.1140616 13.6030498,49.04649 12.8776361,49.04649 C6.62562438,49.04649 1.55736752,54.0656584 1.55736752,60.2571163 C1.55736752,66.4485743 6.62562438,71.4677426 12.8776361,71.4677426 C13.6030498,71.4677426 14.3125271,71.4001711 15,71.2710371 L15,82.8750745 C14.3125271,82.7459405 13.6030498,82.6783689 12.8776361,82.6783689 C6.62562438,82.6783689 1.55736752,87.6975373 1.55736752,93.8889952 C1.55736752,100.080453 6.62562438,105.099622 12.8776361,105.099622 C13.6030498,105.099622 14.3125271,105.03205 15,104.902916 L15,116.506953 C14.3125271,116.377819 13.6030498,116.310248 12.8776361,116.310248 C6.62562438,116.310248 1.55736752,121.329416 1.55736752,127.520874 C1.55736752,133.712332 6.62562438,138.7315 12.8776361,138.7315 C13.6030498,138.7315 14.3125271,138.663929 15,138.534795 L15,149.683076 C14.099078,149.423365 13.1501105,149.284619 12.1701193,149.284619 C6.30885833,149.284619 1.55736752,154.247763 1.55736752,160.370111 C1.55736752,166.492459 6.30885833,171.455602 12.1701193,171.455602 C13.1501105,171.455602 14.099078,171.316857 15,171.057145 L15,181.461485 C14.099078,181.201774 13.1501105,181.063028 12.1701193,181.063028 C6.30885833,181.063028 1.55736752,186.026172 1.55736752,192.14852 C1.55736752,198.270868 6.30885833,203.234011 12.1701193,203.234011 C13.1501105,203.234011 14.099078,203.095266 15,202.835554 Z" id="Pass-(Edge)-Copy" fill="#FFFFFF"></path>
        </g>
    </g>
</svg>